<svg xmlns="http://www.w3.org/2000/svg" width="512" height="512" viewBox="0 0 512 512">
  <rect x="0" y="0" width="512" height="512" fill="#1B2A4A"/>
  <g transform="translate(92.49,22.40) scale(1.344884)">
  <path d="M 144.81,212.25 143.60,212.85 142.29,213.31 140.90,213.62 139.42,213.80 137.88,213.86 136.27,213.82 134.61,213.67 132.90,213.44 131.14,213.12 129.35,212.74 127.53,212.30 125.70,211.82 123.85,211.30 121.99,210.75 120.14,210.19 118.29,209.62 116.47,209.06 114.66,208.51 112.88,207.98 111.12,207.47 109.39,206.97 107.67,206.49 105.98,206.01 104.30,205.54 102.63,205.07 100.97,204.60 99.33,204.13 97.69,203.66 96.06,203.18 94.43,202.69 92.81,202.19 91.19,201.67 89.57,201.14 87.94,200.59 86.31,200.02 84.68,199.43 83.04,198.82 81.41,198.18 79.77,197.53 78.14,196.85 76.52,196.15 74.89,195.43 73.28,194.68 71.67,193.92 70.07,193.12 68.48,192.31 66.90,191.47 65.33,190.61 63.78,189.72 62.24,188.81 60.71,187.88 59.21,186.92 57.72,185.93 56.25,184.92 54.80,183.88 53.37,182.82 51.97,181.73 50.59,180.61 49.23,179.47 47.90,178.30 46.60,177.10 45.33,175.87 44.09,174.62 42.88,173.34 41.70,172.03 40.56,170.70 39.44,169.34 38.36,167.95 37.31,166.54 36.29,165.10 35.30,163.65 34.35,162.17 33.42,160.67 32.53,159.14 31.67,157.60 30.84,156.04 30.04,154.46 29.28,152.87 28.54,151.25 27.84,149.62 27.17,147.98 26.54,146.32 25.93,144.64 25.35,142.96 24.81,141.26 24.30,139.54 23.82,137.82 23.37,136.09 22.96,134.35 22.58,132.60 22.22,130.84 21.91,129.08 21.62,127.31 21.36,125.53 21.14,123.75 20.95,121.96 20.79,120.17 20.66,118.38 20.56,116.59 20.50,114.79 20.47,113.00 20.47,111.20 20.50,109.41 20.56,107.62 20.66,105.83 20.78,104.04 20.94,102.26 21.14,100.49 21.36,98.72 21.62,96.95 21.90,95.20 22.22,93.45 22.57,91.71 22.96,89.98 23.37,88.26 23.82,86.55 24.30,84.85 24.82,83.17 25.36,81.50 25.94,79.84 26.55,78.20 27.19,76.57 27.86,74.96 28.56,73.37 29.30,71.79 30.07,70.23 30.87,68.70 31.71,67.18 32.57,65.68 33.47,64.21 34.40,62.75 35.35,61.32 36.34,59.90 37.36,58.51 38.41,57.14 39.48,55.79 40.58,54.46 41.71,53.16 42.87,51.88 44.05,50.62 45.26,49.38 46.49,48.16 47.74,46.97 49.02,45.80 50.33,44.65 51.65,43.53 53.00,42.43 54.37,41.35 55.76,40.29 57.17,39.26 58.60,38.26 60.06,37.27 61.52,36.31 63.01,35.38 64.52,34.47 66.04,33.58 67.58,32.72 69.14,31.89 70.71,31.07 72.30,30.29 73.90,29.53 75.51,28.79 77.14,28.08 78.78,27.40 80.43,26.74 82.10,26.10 83.78,25.50 85.46,24.92 87.16,24.36 88.87,23.83 90.58,23.33 92.31,22.86 94.04,22.41 95.78,21.99 97.53,21.60 99.28,21.23 101.04,20.90 102.80,20.58 104.57,20.30 106.35,20.05 108.12,19.82 109.90,19.62 111.68,19.45 113.47,19.31 115.25,19.20 117.04,19.11 118.82,19.06 120.61,19.03 122.40,19.04 124.18,19.07 125.96,19.13 127.74,19.22 129.52,19.34 131.29,19.49 133.06,19.67 134.83,19.88 136.59,20.12 138.35,20.38 140.10,20.68 141.84,21.00 143.58,21.35 145.31,21.73 147.04,22.14 148.76,22.58 150.46,23.04 152.16,23.53 153.86,24.05 155.54,24.60 157.21,25.17 158.87,25.77 160.52,26.40 162.16,27.05 163.79,27.74 165.40,28.45 167.00,29.18 168.59,29.95 170.17,30.74 171.73,31.55 173.28,32.39 174.81,33.26 176.33,34.16 177.83,35.08 179.31,36.02 180.78,37.00 182.23,37.99 183.67,39.02 185.08,40.07 186.48,41.14 187.86,42.24 189.22,43.36 190.56,44.51 191.87,45.69 193.17,46.89 194.45,48.11 195.70,49.36 196.94,50.63 198.15,51.93 199.33,53.25 200.50,54.59 201.64,55.96 202.75,57.35 203.84,58.77 204.91,60.21 205.95,61.67 206.96,63.16 207.95,64.67 208.91,66.20 209.85,67.76 210.75,69.33 211.63,70.94 212.47,72.56 213.28,74.20 214.01,75.84 214.61,77.43 215.04,78.97 215.24,80.41 215.16,81.74 214.77,82.92 214.00,83.92 212.92,84.68 211.64,85.13 210.30,85.17 209.03,84.71 207.89,83.80 206.83,82.55 205.83,81.12 204.83,79.63 203.84,78.15 202.84,76.66 201.84,75.18 200.83,73.69 199.81,72.22 198.79,70.75 197.75,69.30 196.70,67.85 195.63,66.42 194.55,65.01 193.45,63.62 192.32,62.25 191.18,60.90 190.01,59.57 188.82,58.28 187.60,57.01 186.36,55.76 185.09,54.55 183.81,53.36 182.49,52.20 181.16,51.07 179.81,49.96 178.43,48.88 177.03,47.84 175.62,46.82 174.18,45.83 172.72,44.87 171.25,43.93 169.75,43.03 168.24,42.16 166.71,41.31 165.17,40.50 163.60,39.71 162.03,38.96 160.43,38.24 158.82,37.54 157.20,36.88 155.56,36.25 153.90,35.65 152.24,35.08 150.56,34.54 148.87,34.04 147.16,33.56 145.45,33.12 143.72,32.71 141.98,32.33 140.24,31.98 138.48,31.67 136.72,31.38 134.95,31.13 133.18,30.91 131.39,30.72 129.61,30.57 127.81,30.44 126.02,30.34 124.22,30.28 122.42,30.24 120.61,30.24 118.81,30.27 117.01,30.33 115.20,30.42 113.40,30.54 111.60,30.68 109.81,30.86 108.01,31.07 106.22,31.31 104.44,31.58 102.66,31.88 100.89,32.21 99.12,32.57 97.36,32.96 95.61,33.38 93.87,33.83 92.14,34.31 90.42,34.81 88.71,35.35 87.02,35.91 85.33,36.51 83.66,37.13 82.01,37.78 80.37,38.46 78.74,39.17 77.13,39.91 75.54,40.68 73.97,41.47 72.41,42.29 70.87,43.14 69.36,44.02 67.86,44.93 66.39,45.86 64.94,46.83 63.51,47.82 62.10,48.83 60.72,49.88 59.36,50.95 58.03,52.05 56.73,53.18 55.45,54.33 54.20,55.52 52.98,56.72 51.79,57.96 50.62,59.22 49.49,60.51 48.39,61.83 47.33,63.17 46.29,64.54 45.29,65.93 44.32,67.35 43.39,68.80 42.49,70.27 41.63,71.77 40.80,73.29 40.01,74.83 39.25,76.39 38.53,77.97 37.84,79.57 37.19,81.19 36.57,82.83 35.99,84.48 35.44,86.15 34.93,87.84 34.45,89.53 34.00,91.24 33.60,92.96 33.22,94.70 32.89,96.44 32.58,98.19 32.32,99.95 32.09,101.71 31.89,103.49 31.73,105.26 31.60,107.04 31.51,108.83 31.46,110.61 31.44,112.40 31.46,114.19 31.51,115.98 31.59,117.77 31.72,119.55 31.88,121.33 32.07,123.11 32.30,124.88 32.57,126.64 32.87,128.40 33.20,130.15 33.58,131.89 33.99,133.62 34.43,135.34 34.91,137.05 35.43,138.75 35.98,140.43 36.57,142.10 37.19,143.75 37.85,145.38 38.55,147.00 39.28,148.60 40.05,150.18 40.85,151.74 41.70,153.28 42.57,154.79 43.49,156.29 44.44,157.76 45.42,159.20 46.44,160.62 47.50,162.01 48.60,163.37 49.73,164.71 50.90,166.01 52.10,167.29 53.34,168.53 54.62,169.74 55.93,170.92 57.28,172.07 58.66,173.18 60.07,174.26 61.51,175.31 62.98,176.33 64.48,177.33 66.00,178.29 67.54,179.23 69.11,180.14 70.69,181.02 72.29,181.88 73.91,182.71 75.54,183.52 77.19,184.31 78.84,185.07 80.51,185.81 82.18,186.53 83.86,187.23 85.54,187.91 87.23,188.57 88.91,189.21 90.60,189.83 92.28,190.44 93.96,191.03 95.63,191.61 97.29,192.17 98.95,192.71 100.59,193.24 102.22,193.76 103.84,194.27 105.45,194.76 107.05,195.25 108.64,195.72 110.24,196.18 111.85,196.63 113.46,197.06 115.09,197.49 116.73,197.90 118.40,198.31 120.10,198.70 121.82,199.08 123.58,199.45 125.37,199.81 127.21,200.16 129.10,200.51 131.03,200.84 133.00,201.17 134.98,201.52 136.92,201.92 138.80,202.37 140.59,202.91 142.26,203.54 143.77,204.30 145.09,205.19 146.18,206.22 146.97,207.34 147.37,208.48 147.30,209.57 146.78,210.59 145.91,211.49 Z" fill="#FFFFFF"/>
  <path d="M 125.02,328.30 123.15,328.34 121.29,328.35 119.42,328.34 117.56,328.30 115.70,328.24 113.83,328.14 111.97,328.02 110.12,327.88 108.26,327.70 106.41,327.51 104.56,327.28 102.72,327.03 100.88,326.75 99.05,326.44 97.22,326.10 95.40,325.74 93.59,325.35 91.79,324.94 89.99,324.49 88.20,324.02 86.43,323.52 84.66,322.99 82.90,322.44 81.15,321.86 79.42,321.25 77.70,320.61 75.99,319.94 74.29,319.24 72.61,318.52 70.94,317.77 69.28,316.99 67.64,316.18 66.02,315.34 64.41,314.48 62.82,313.58 61.25,312.66 59.69,311.71 58.15,310.73 56.64,309.72 55.14,308.68 53.66,307.61 52.20,306.51 50.77,305.39 49.35,304.23 47.96,303.04 46.59,301.83 45.24,300.58 43.92,299.31 42.62,298.01 41.35,296.67 40.10,295.31 38.88,293.91 37.68,292.49 36.51,291.04 35.37,289.55 34.26,288.04 33.17,286.49 32.12,284.92 31.09,283.31 30.09,281.67 29.13,280.00 28.20,278.31 27.29,276.58 26.43,274.82 25.60,273.04 24.83,271.24 24.10,269.43 23.43,267.61 22.83,265.78 22.29,263.96 21.83,262.14 21.45,260.33 21.16,258.54 20.96,256.76 20.85,255.01 20.85,253.29 20.96,251.60 21.19,249.96 21.53,248.36 22.01,246.87 22.64,245.64 23.45,244.81 24.46,244.52 25.62,244.79 26.84,245.50 28.00,246.56 29.03,247.87 29.90,249.38 30.65,251.04 31.29,252.83 31.86,254.72 32.40,256.66 32.91,258.64 33.44,260.61 34.01,262.55 34.62,264.45 35.27,266.30 35.97,268.12 36.71,269.90 37.49,271.64 38.31,273.34 39.18,275.00 40.08,276.62 41.02,278.21 41.99,279.76 43.01,281.28 44.06,282.76 45.14,284.20 46.26,285.61 47.41,286.99 48.60,288.33 49.82,289.64 51.07,290.91 52.35,292.16 53.66,293.37 55.01,294.55 56.38,295.70 57.77,296.82 59.20,297.91 60.65,298.97 62.13,300.00 63.63,301.00 65.16,301.98 66.71,302.93 68.28,303.85 69.88,304.74 71.49,305.60 73.13,306.44 74.79,307.25 76.46,308.02 78.15,308.77 79.86,309.50 81.59,310.19 83.33,310.85 85.09,311.49 86.86,312.09 88.65,312.67 90.45,313.22 92.26,313.73 94.08,314.22 95.91,314.68 97.75,315.10 99.60,315.50 101.46,315.87 103.33,316.20 105.20,316.51 107.08,316.78 108.96,317.03 110.85,317.24 112.74,317.42 114.64,317.57 116.53,317.69 118.43,317.78 120.33,317.83 122.22,317.85 124.12,317.85 126.01,317.81 127.90,317.73 129.79,317.63 131.68,317.49 133.56,317.32 135.43,317.11 137.30,316.88 139.15,316.61 141.01,316.31 142.85,315.97 144.68,315.60 146.50,315.20 148.32,314.76 150.12,314.29 151.90,313.78 153.68,313.24 155.44,312.67 157.18,312.06 158.91,311.42 160.62,310.74 162.32,310.03 163.99,309.28 165.65,308.50 167.29,307.68 168.91,306.83 170.51,305.94 172.08,305.01 173.63,304.05 175.16,303.05 176.67,302.02 178.15,300.95 179.60,299.85 181.03,298.70 182.43,297.53 183.81,296.31 185.15,295.07 186.47,293.79 187.76,292.48 189.02,291.13 190.25,289.76 191.45,288.36 192.62,286.93 193.76,285.47 194.87,283.98 195.95,282.47 196.99,280.94 198.01,279.38 198.99,277.80 199.94,276.20 200.86,274.58 201.74,272.94 202.59,271.28 203.40,269.60 204.18,267.91 204.92,266.20 205.63,264.47 206.30,262.74 206.94,260.98 207.54,259.22 208.10,257.45 208.62,255.66 209.11,253.87 209.56,252.07 209.97,250.26 210.34,248.45 210.67,246.63 210.96,244.81 211.21,242.98 211.42,241.15 211.59,239.32 211.71,237.49 211.80,235.66 211.84,233.83 211.84,232.01 211.80,230.19 211.71,228.37 211.58,226.56 211.41,224.75 211.19,222.95 210.93,221.16 210.62,219.38 210.26,217.61 209.86,215.86 209.42,214.11 208.92,212.38 208.38,210.66 207.79,208.95 207.15,207.27 206.47,205.60 205.73,203.94 204.95,202.31 204.11,200.69 203.23,199.10 202.30,197.53 201.31,195.98 200.27,194.46 199.19,192.96 198.05,191.48 196.87,190.03 195.65,188.61 194.38,187.21 193.07,185.84 191.73,184.49 190.34,183.17 188.93,181.88 187.48,180.62 185.99,179.39 184.48,178.18 182.95,177.01 181.38,175.86 179.80,174.74 178.19,173.66 176.56,172.61 174.92,171.58 173.26,170.59 171.59,169.64 169.90,168.71 168.20,167.82 166.50,166.96 164.79,166.14 163.08,165.35 161.36,164.59 159.64,163.87 157.93,163.19 156.22,162.54 154.51,161.92 152.80,161.34 151.09,160.78 149.39,160.25 147.68,159.74 145.97,159.24 144.26,158.76 142.54,158.29 140.82,157.83 139.10,157.38 137.37,156.93 135.63,156.47 133.88,156.02 132.12,155.55 130.35,155.08 128.57,154.59 126.78,154.09 124.99,153.58 123.18,153.06 121.36,152.53 119.54,151.99 117.71,151.46 115.88,150.92 114.05,150.37 112.21,149.83 110.37,149.29 108.52,148.76 106.68,148.23 104.84,147.70 103.00,147.19 101.17,146.68 99.34,146.18 97.58,145.64 95.99,144.96 94.65,144.06 93.66,142.86 93.07,141.39 92.88,139.80 93.09,138.29 93.69,137.05 94.66,136.17 95.95,135.64 97.50,135.40 99.25,135.39 101.16,135.58 103.15,135.91 105.19,136.34 107.20,136.80 109.17,137.28 111.08,137.76 112.95,138.25 114.78,138.75 116.58,139.26 118.34,139.77 120.08,140.29 121.79,140.81 123.49,141.33 125.17,141.86 126.85,142.39 128.52,142.92 130.19,143.45 131.87,143.99 133.55,144.52 135.25,145.05 136.97,145.58 138.71,146.11 140.46,146.64 142.22,147.18 144.00,147.71 145.79,148.25 147.59,148.80 149.40,149.35 151.21,149.91 153.03,150.48 154.84,151.07 156.66,151.66 158.48,152.27 160.30,152.89 162.11,153.53 163.92,154.18 165.71,154.86 167.50,155.55 169.28,156.26 171.04,157.00 172.79,157.76 174.53,158.55 176.24,159.36 177.94,160.19 179.62,161.06 181.27,161.96 182.90,162.89 184.50,163.85 186.07,164.84 187.61,165.87 189.13,166.93 190.61,168.03 192.06,169.17 193.47,170.33 194.86,171.53 196.21,172.77 197.53,174.03 198.82,175.33 200.08,176.65 201.30,178.01 202.49,179.39 203.65,180.80 204.78,182.24 205.87,183.70 206.93,185.18 207.95,186.70 208.95,188.23 209.90,189.79 210.83,191.37 211.72,192.96 212.58,194.58 213.40,196.22 214.19,197.88 214.95,199.55 215.67,201.24 216.35,202.95 217.01,204.67 217.62,206.41 218.21,208.16 218.75,209.93 219.27,211.70 219.74,213.49 220.19,215.28 220.59,217.09 220.96,218.90 221.30,220.73 221.60,222.56 221.86,224.39 222.09,226.23 222.28,228.08 222.44,229.93 222.56,231.78 222.64,233.64 222.69,235.49 222.70,237.35 222.67,239.21 222.61,241.06 222.51,242.92 222.37,244.77 222.19,246.61 221.98,248.46 221.73,250.29 221.44,252.13 221.12,253.95 220.75,255.77 220.35,257.58 219.91,259.38 219.43,261.17 218.92,262.95 218.36,264.72 217.77,266.47 217.14,268.22 216.47,269.94 215.76,271.66 215.01,273.36 214.22,275.04 213.40,276.70 212.54,278.35 211.64,279.98 210.71,281.59 209.74,283.18 208.74,284.75 207.70,286.30 206.63,287.83 205.53,289.34 204.40,290.82 203.24,292.28 202.05,293.72 200.83,295.14 199.58,296.53 198.31,297.89 197.01,299.23 195.68,300.54 194.32,301.83 192.95,303.09 191.54,304.32 190.12,305.52 188.67,306.69 187.21,307.83 185.72,308.94 184.21,310.02 182.68,311.07 181.13,312.08 179.57,313.06 177.98,314.01 176.39,314.93 174.77,315.81 173.14,316.66 171.49,317.48 169.83,318.27 168.16,319.03 166.47,319.75 164.77,320.45 163.05,321.11 161.32,321.74 159.58,322.35 157.83,322.92 156.07,323.46 154.30,323.97 152.52,324.46 150.73,324.91 148.93,325.34 147.13,325.73 145.32,326.10 143.49,326.44 141.67,326.75 139.83,327.03 138.00,327.28 136.15,327.51 134.30,327.71 132.45,327.88 130.60,328.03 128.74,328.14 126.88,328.24 Z" fill="#FFFFFF"/>
  </g>
</svg>